<svg xmlns="http://www.w3.org/2000/svg" height="530" viewBox="0 0 420 530" width="420" version="1.1">
<g id="XMLID_3_" transform="translate(-31.86,-54.702)">
<g transform="translate(1.86 -.299)">
	<path d="m430.85 267.58c-8.87 0-13.38 5.39-14.65 10.43-0.54 2.13-0.6 4.45-0.5 6.4-4.58-7.58-4.63-11-4.85-25.28l-0.05-3.06c-0.2-11.77-0.79-46.84 6.6-73.19 1.71 3.01 5.51 7.61 12.8 7.61 9.18 0 15.58-9.33 15.58-17.71 0-6.96-4.96-13.41-12.09-15.72-0.06-0.03-0.12-0.05-0.18-0.06-0.02-0.01-0.05-0.02-0.07-0.02-1.94-0.62-4.02-0.93-6.18-0.93-3.4 0-7.54-0.59-11.06-1.58-1.96-0.55-3.65-1.18-5.01-1.87-0.42-0.21-0.81-0.47-1.19-0.74-0.02-0.03-0.05-0.06-0.08-0.08-0.05-0.04-0.1-0.07-0.15-0.1-0.13-0.1-0.27-0.19-0.39-0.29-0.99-0.84-1.84-1.9-2.6-3.24 0.02 0.05 0.04 0.09 0.04 0.14 0.03 0.08 0.04 0.16 0.04 0.25s-0.01 0.18-0.04 0.26c0.04-0.17 0.04-0.34 0-0.51-0.02-0.09-0.06-0.17-0.1-0.24 0 0 0.01-0.01 0-0.01-0.01-0.01-0.02-0.03-0.03-0.04-0.03-0.07-0.07-0.12-0.12-0.17 0.03 0.04 0.07 0.08 0.1 0.12-0.61-1.11-1.18-2.41-1.73-3.96-0.6-1.72-1.11-3.53-1.65-5.44-0.24-0.83-0.47-1.67-0.72-2.51-1.5-5.11-3.1-9.12-6.04-12.06-5.29-5.3-10.72-5.3-13.96-5.3-5.56 0-9.92 4.03-14.54 8.29-0.47 0.43-0.95 0.87-1.43 1.31l0.06-0.03c-0.05 0.03-0.1 0.06-0.14 0.1l-0.01 0.01c-0.05 0.04-0.09 0.09-0.12 0.14 0.01-0.03 0.03-0.05 0.05-0.07-0.46 0.42-0.94 0.84-1.41 1.26-0.05 0.03-0.09 0.06-0.12 0.1-5.15 4.48-11.02 8.49-19.54 8.49-8.45 0-20.56-7.32-31.25-13.77-2.9-1.76-5.65-3.42-8.23-4.88 0.13-2.49 0.53-7.62 1.15-9.33 1.37-3.67 5.98-13.691 6.84-15.551l11.36-6.19c0.28-0.16 0.48-0.44 0.51-0.77l2.02-18.07c0.06-0.5-0.26-0.96-0.75-1.08l-41.71-10.5c-0.26-0.07-0.55-0.02-0.78 0.13l-16.12 10.38c-0.27 0.17-0.44 0.46-0.46 0.78l-0.69 11.82-2.91 0.04 2.1-24.84c0.02-0.28-0.07-0.56-0.26-0.76-0.19-0.21-0.46-0.33-0.74-0.33l-51.25-0.059c-0.28 0-0.55 0.12-0.73 0.32-0.19 0.21-0.29 0.48-0.27 0.76l2.03 24.8h-2.68l-1.01-11.9c-0.03-0.32-0.2-0.6-0.47-0.76l-16.31-10.32c-0.23-0.14-0.51-0.19-0.77-0.12l-41.78 10.5c-0.48 0.12-0.8 0.57-0.76 1.05l1.53 18c0.03 0.33 0.22 0.62 0.5 0.79l12.69 7.27 6.33 14.4 2.14 9.65c-2.69 1.38-5.62 2.96-8.71 4.62-11.99 6.45-25.57 13.76-32.6 13.76-4.42 0-11.59-2.91-15.25-5.52-0.7-0.49-1.48-1.28-2.19-2-0.04-0.04-0.07-0.08-0.11-0.12-0.33-0.35-0.67-0.71-1.03-1.09-3.97-4.23-9.97-10.61-19.62-10.61h-0.04c-3.85 0.01-11.79 3.21-14.31 7.13-1.66 2.58-2.91 6.68-4.23 11.02l-0.53 1.71c-0.59 1.95-1.31 4.22-2.12 6.24 0.01-0.02 0.02-0.03 0.02-0.04 0.02-0.03 0.03-0.05 0.07-0.08-0.04 0.04-0.06 0.08-0.09 0.12-0.01 0.02-0.02 0.05-0.03 0.07-0.02 0.03-0.03 0.06-0.04 0.08-0.51 1.28-1 2.3-1.49 3.14-0.39 0.7-0.78 1.26-1.15 1.71-0.4 0.48-0.94 0.94-1.59 1.38-1.5 0.99-3.7 1.9-6.53 2.69-4.27 1.18-9.1 1.83-12.39 2.16-0.95 0.1-1.88 0.25-2.75 0.44-0.02 0.01-0.04 0.01-0.06 0.01-4.53 0.96-14.92 4.49-14.92 16.56 0 13.97 11.45 17.66 17.5 17.66 6.6 0 10.3-4.64 11.93-7.43 4.74 13.02 7.02 50.14 6.9 67.76-0.04 6.15-1.64 24.74-1.66 24.92-0.49 5.38-3.15 8.7-5.12 10.46 0.45-1.76 0.93-3.96 0.95-5.28 0.05-4.5-1.2-8.02-3.74-10.46-2.79-2.69-6.97-3.91-12.4-3.63-10.54 0.54-15.45 10.86-15.45 17.66 0 4.98 2.64 9.74 7.63 13.77 0.02 0.02 0.04 0.03 0.06 0.04 3.61 2.92 8.27 5.26 12.49 6.29 0.83 0.2 1.13 1.84 1.45 3.57 0.08 0.44 0.16 0.89 0.26 1.36l0.05 0.19 0.18 0.78c0.92 3.57 0.92 8.7 0.92 13.66 0 0.92 0 1.84 0.01 2.75 0.01 2.07 0.29 7.24 0.29 7.24 0.25 2.39 0.66 4.26 1.25 5.7 1.21 2.96 6.2 6.91 8.11 8.35-2.52 5.17-16.78 35.56-16.78 60.64 0 23.78 7.03 43.55 22.12 62.2 17.74 21.92 46.73 42.05 88.63 61.54l2.16 1c9.66 4.48 12.25 5.68 23.78 13.42 6.86 4.6 23.05 24.11 23.21 24.31 0.33 0.4 0.92 0.48 1.34 0.18l6.88-4.83 7.65 8.12c0.34 0.36 0.89 0.42 1.29 0.14l2.51-1.72 11.83 10.96c0.19 0.17 0.43 0.26 0.68 0.26s0.51-0.1 0.71-0.29l10.55-10.54 3.3 1.27c0.36 0.14 0.77 0.05 1.05-0.22l7.74-7.51 6.5 4.53c0.43 0.3 1.01 0.22 1.34-0.19 0.16-0.19 16.27-19.87 23.12-24.47 9.26-6.21 21.27-12.24 34-18.62 43.62-21.9 97.92-49.15 103.1-111.37 1.45-17.44-2.02-31.46-5.62-42.89-1.88-5.98-8.82-21.31-10.68-25.39 1.36-0.57 3.77-1.82 5.65-4.08 2.71-3.22 3.24-5.71 3.41-7.73 0.07-0.96 0.12-2 0.14-3.08v-0.21c0.04-1.75 0.02-3.66 0.01-5.68-0.02-2.12-0.04-4.31 0-6.46 0.07-3.76 0.32-8.49 1.54-11.72 1.06-2.82 2.11-4.41 3.39-5.15 1.08-0.63 2.57-1.29 4.14-2 3.07-1.37 6.23-2.78 7.95-4.54 0.01 0 0.03-0.02 0.04-0.03 2.58-2.7 6.9-7.21 6.9-14.06 0-8.58-8.4-16.69-17.29-16.69z"/>
</g><g fill="#feac01">
<polygon transform="translate(1.86 -.299)" points="239.35 127.74 235.9 123.66 239.57 116.06"/>
<polygon transform="translate(1.86 -.299)" points="240.36 127.62 240.57 116.24 243.65 123.56"/>
<path d="m254.36 124.48-11.27 3.35 3.2-3.95c0.02 0.01 0.05 0.02 0.08 0.02l7.99 0.58z"/>
<polygon transform="translate(1.86 -.299)" points="241.41 129.12 253.62 125.48 247.32 131.3"/>
<path d="m248.84 131.98 1.71 8.42-7.37-10.54 5.66 2.09v0.03z"/>
<path d="m241.76 129.56 7.78 11.14-7.01-4.63c-0.17-0.11-0.36-0.17-0.55-0.17s-0.38 0.05-0.55 0.16l-6.99 4.58 7.32-11.08z"/>
<path d="m240.34 129.9-6.63 10.01 1.55-7.73c0-0.03 0.01-0.05 0.01-0.08l5.07-2.2z"/>
<polygon transform="translate(1.86 -.299)" points="226.49 125.54 238.37 129.14 233.02 131.46"/>
<path d="m240.22 127.8-10.85-3.29 7.52-0.49c0.03 0 0.07-0.01 0.1-0.03l3.23 3.81z"/>
<polygon transform="translate(1.86 -.299)" points="274.83 86.505 308.07 94.625 303.03 107.18 274.83 99.725"/>
<polygon transform="translate(1.86 -.299)" points="307.54 67.905 323.04 71.785 321.88 83.735 306.85 79.985"/>
<polygon transform="translate(1.86 -.299)" points="286.86 63.395 304.33 67.175 303.61 79.405 286.51 75.425"/>
<polygon transform="translate(1.86 -.299)" points="272.15 71.015 283.49 63.705 283.3 75.315 271.48 80.885"/>
<polygon transform="translate(1.86 -.299)" points="284.51 78.305 319.55 86.915 309.87 91.285 275.73 82.925"/>
<polygon transform="translate(1.86 -.299)" points="241.92 59.195 261.47 59.195 260.86 68.195 241.92 68.195"/>
<rect height="9" width="18.21" y="58.896" x="220.69"/>
<polygon transform="translate(1.86 -.299)" points="218.9 71.235 260.2 71.235 259.3 80.695 220.19 80.695"/>
<path d="m308.44 66.946-0.75 13.09c-0.01 0.24 0.14 0.46 0.38 0.51l15.99 4c0.04 0.02 0.08 0.02 0.12 0.02 0.1 0 0.2-0.03 0.29-0.09 0.12-0.09 0.19-0.22 0.21-0.36l1.26-12.96c0.02-0.25-0.14-0.47-0.38-0.53l-16.5-4.13c-0.15-0.04-0.3-0.01-0.42 0.08s-0.19 0.22-0.2 0.37zm-20.51-4.86c-0.12 0.09-0.19 0.23-0.19 0.38l-0.38 13.04c-0.01 0.23 0.16 0.44 0.39 0.5l18.07 4.21c0.04 0.01 0.08 0.01 0.12 0.01 0.1 0 0.21-0.03 0.3-0.1 0.12-0.09 0.19-0.22 0.2-0.37l0.78-13.25c0.01-0.25-0.15-0.47-0.4-0.52l-18.48-4c-0.14-0.03-0.3 0-0.41 0.1zm-11.62 22.99c-0.15-0.03-0.31 0-0.43 0.1-0.12 0.09-0.19 0.24-0.19 0.39v14.25c0 0.234 0.15 0.434 0.37 0.484l29 7.66c0.04 0.01 0.09 0.02 0.13 0.02 0.2 0 0.38-0.12 0.46-0.31l5.42-13.504c0.06-0.14 0.05-0.29-0.02-0.42-0.06-0.13-0.18-0.22-0.32-0.26l-34.42-8.41zm9.76-8.04-10.11 5.32c-0.19 0.1-0.29 0.3-0.27 0.51 0.03 0.2 0.18 0.37 0.38 0.42l35.59 8.72c0.04 0.01 0.08 0.01 0.12 0.01 0.07 0 0.14-0.02 0.21-0.04l11.15-5.04c0.2-0.09 0.32-0.29 0.3-0.51-0.02-0.21-0.18-0.38-0.38-0.44l-36.63-9c-0.12-0.03-0.25-0.01-0.36 0.05zm-13.57 4.77c0.08 0.06 0.18 0.09 0.28 0.09 0.07 0 0.15-0.02 0.21-0.05l12.88-6.06c0.18-0.08 0.29-0.25 0.29-0.44l0.2-12.86c0-0.19-0.1-0.36-0.26-0.45s-0.36-0.08-0.51 0.02l-12.33 7.96c-0.13 0.09-0.22 0.23-0.23 0.39l-0.75 10.96c-0.01 0.17 0.07 0.34 0.22 0.44zm-29.22-23.91c-0.28 0-0.5 0.22-0.5 0.5v10c0 0.28 0.22 0.5 0.5 0.5h19.91c0.26 0 0.48-0.2 0.5-0.47l0.67-10c0.01-0.13-0.04-0.27-0.13-0.37-0.1-0.1-0.23-0.16-0.37-0.16h-20.58zm-1.25 25.67v13.58c0 0.26 0.2 0.48 0.46 0.5l31 2.26h0.04c0.13 0 0.25-0.05 0.34-0.13 0.1-0.1 0.16-0.23 0.16-0.37v-13.94c0-0.26-0.21-0.48-0.47-0.5l-31-1.9c-0.14 0-0.27 0.04-0.37 0.14-0.1 0.09-0.16 0.22-0.16 0.36zm-21.84-14.67h19.21c0.28 0 0.5-0.22 0.5-0.5v-10c0-0.28-0.22-0.5-0.5-0.5h-19.21c-0.28 0-0.5 0.22-0.5 0.5v10c0 0.28 0.22 0.5 0.5 0.5zm19.65 14.17-31.08 1.33c-0.27 0.01-0.48 0.23-0.48 0.5v14.58c0 0.14 0.06 0.27 0.16 0.37 0.09 0.08 0.21 0.13 0.34 0.13h0.04l31.08-2.25c0.26-0.02 0.46-0.24 0.46-0.5v-13.66c0-0.14-0.06-0.27-0.15-0.36-0.1-0.1-0.23-0.14-0.37-0.14zm-18.23-1.67h40c0.26 0 0.47-0.2 0.5-0.45l1-10.46c0.01-0.14-0.04-0.28-0.13-0.39-0.09-0.1-0.23-0.16-0.37-0.16h-42.42c-0.14 0-0.28 0.06-0.38 0.17-0.09 0.11-0.13 0.25-0.12 0.4l1.42 10.46c0.04 0.24 0.25 0.43 0.5 0.43zm-23.31-5.97 12.5 6.34c0.07 0.03 0.15 0.05 0.23 0.05h0.02c0.28 0 0.5-0.22 0.5-0.5 0-0.06-0.01-0.12-0.03-0.18l-0.91-10.74c-0.01-0.16-0.1-0.29-0.23-0.38l-12.67-8.29c-0.16-0.1-0.36-0.11-0.53-0.01-0.16 0.1-0.25 0.28-0.24 0.47l1.09 12.83c0.02 0.17 0.12 0.33 0.27 0.41zm-21.16-9.17 0.89 13c0.01 0.15 0.08 0.29 0.2 0.37 0.09 0.07 0.19 0.1 0.3 0.1 0.04 0 0.08 0 0.12-0.01l17.33-4.16c0.24-0.06 0.4-0.28 0.38-0.53l-1-12.92c-0.01-0.14-0.09-0.28-0.21-0.36-0.11-0.09-0.26-0.12-0.41-0.09l-17.22 4.08c-0.23 0.06-0.4 0.28-0.38 0.52zm0.42 40.904c0.08 0.2 0.27 0.32 0.47 0.32 0.04 0 0.08 0 0.12-0.01l28.91-6.91c0.22-0.06 0.38-0.26 0.38-0.49v-15.174c0-0.15-0.07-0.3-0.19-0.4-0.13-0.09-0.29-0.12-0.43-0.08l-34.08 8.83c-0.14 0.03-0.26 0.13-0.33 0.25-0.06 0.13-0.07 0.28-0.02 0.41l5.17 13.254zm-18.4-22.284 16.82-4.49c0.23-0.06 0.38-0.27 0.37-0.51l-0.82-13.27c-0.01-0.15-0.09-0.29-0.21-0.37-0.12-0.09-0.27-0.12-0.42-0.08l-17.42 4.51c-0.24 0.06-0.39 0.29-0.37 0.53l1.42 13.25 0.5 0.45c0.04 0 0.09-0.01 0.13-0.02zm17.07 24.404-6.5-14.794c-0.09-0.2-0.24-0.36-0.42-0.47l-12.52-7.18-1.41-16.63 40.54-10.19 15.53 9.82 1.04 12.33c0.05 0.51 0.48 0.91 1 0.91h4.69c0.28 0 0.54-0.12 0.73-0.32 0.19-0.21 0.29-0.48 0.27-0.76l-2.03-24.8 49.07 0.06-2.1 24.86c-0.02 0.28 0.08 0.55 0.27 0.76s0.49 0.32 0.74 0.32l4.94-0.06c0.53-0.01 0.96-0.42 0.99-0.94l0.72-12.24 15.33-9.87 40.44 10.18-1.87 16.68-11.18 6.1c-0.19 0.1-0.34 0.27-0.43 0.46-0.23 0.48-5.51 11.884-7.04 15.994-0.71 1.92-1.09 6.79-1.23 9.19-0.65-0.24-1.25-0.46-1.82-0.66l1.13-7.3c0.03-0.25-0.11-0.48-0.35-0.56-40.06-12.374-70.68-15.774-126.86 0-0.14 0.04-0.25 0.13-0.31 0.25-0.07 0.12-0.08 0.27-0.03 0.4l2.6 7.26v0.01c-0.6 0.21-1.19 0.44-1.8 0.69l-2.07-9.32-0.06-0.18zm-16.07-22.424 11.67 5.12c0.06 0.03 0.13 0.04 0.2 0.04 0.04 0 0.08 0 0.12-0.01l34.43-8.97c0.19-0.05 0.34-0.21 0.37-0.41s-0.06-0.4-0.23-0.5l-8.27-5.15c-0.11-0.07-0.24-0.1-0.38-0.07l-37.83 9c-0.21 0.05-0.36 0.23-0.38 0.45-0.02 0.21 0.1 0.41 0.3 0.5z"/>
<polygon transform="translate(1.86 -.299)" points="196.17 63.425 207.77 71.025 208.6 80.765 197.14 74.955"/>
<polygon transform="translate(1.86 -.299)" points="176.31 66.915 192.55 63.065 193.47 74.975 177.13 78.905"/>
<polygon transform="translate(1.86 -.299)" points="156.29 71.825 172.71 67.575 173.47 79.825 157.6 84.055"/>
<polygon transform="translate(1.86 -.299)" points="196.24 78.225 203.34 82.655 170.21 91.295 160.07 86.835"/>
<polygon transform="translate(1.86 -.299)" points="171.67 94.365 204.58 85.845 204.58 99.975 176.48 106.68"/>
<polygon transform="translate(1.86 -.299)" points="207.42 85.675 237.5 84.385 237.5 97.055 207.42 99.235"/>
<polygon transform="translate(1.86 -.299)" points="241.17 84.395 271.17 86.235 271.17 99.165 241.17 96.985"/>
<path d="m304.05 111-1.02 6.69h-0.01c-0.02 0-0.03-0.01-0.05-0.01-1.98-0.66-3.76-1.11-5.82-1.4-38.36-12.22-70.12-12.19-109.97 0.07-1.99 0.29-3.76 0.7-5.52 1.24-0.01 0-0.03 0.01-0.04 0.01s-0.01 0-0.02 0.01c-0.16 0.04-0.33 0.09-0.49 0.15l-2.43-6.77c55.43-15.494 85.82-12.174 125.37 0.01z"/>
<path d="m347.23 140.18c7.54 0 13.09-2.86 17.83-6.5-3.29 4.46-9.35 10.22-18.62 10.22-12.54 0-23.72-6.6-33.59-12.42-8.34-4.93-16.23-9.58-23.74-9.58-9.83 0-16.96 5.37-16.96 12.77 0 1.52 0.3 3.1 0.89 4.7 0.16 0.41 0.54 0.67 1.01 0.65 0.44-0.03 0.81-0.35 0.91-0.79 0.07-0.32 1.81-7.86 9.65-7.86 4.39 0 7.96 4.26 7.96 9.49 0 7.76-8.15 11.66-12.71 11.66-0.06 0-0.12 0-0.23-0.01-0.14-0.01-14.02-1.47-14.02-15.86 0-12.31 12.41-18.87 21.37-18.87 8.46 0 11.39 0.47 15.4 1.81l0.22 0.07c0.14 0.05 0.27 0.09 0.41 0.14 0.02 0.01 0.05 0.02 0.07 0.02 0.98 0.35 2.03 0.75 3.24 1.2 2.68 1.51 5.57 3.25 8.62 5.1 10.92 6.59 23.28 14.06 32.29 14.06z"/>
<path d="m197.11 117.78c15.16 0 19.87 13.83 19.87 18.87 0 14.27-11.75 15.71-14.14 15.86h-0.02c-0.21 0.01-0.33 0.01-0.34 0.01-7.09 0-11.61-6.55-11.61-11.05 0-4.37 1.67-9.57 9.61-9.57 2.33 0 4.33 1.4 5.95 4.16 1.26 2.17 1.78 4.37 1.79 4.4 0.1 0.42 0.47 0.74 0.91 0.77 0.42 0.02 0.84-0.24 1-0.65 1.66-4.43 1.24-8.94-1.15-12.39-2.81-4.06-8.14-6.29-15-6.29-7.72 0-15.21 4.48-23.15 9.22-9.63 5.75-20.55 12.28-34.22 12.28-9.37 0-14.33-4.86-16.73-8.55 3.79 2.37 10.5 5.17 15.31 5.17 7.53 0 21.35-7.44 33.55-14 3.32-1.79 6.47-3.48 9.31-4.93 0.01-0.01 0.03-0.01 0.04-0.02 1.09-0.48 2.13-0.89 3.21-1.26 0.02-0.01 0.05-0.02 0.07-0.03l0.24-0.08 0.57-0.18c0.02 0 0.03-0.01 0.05-0.02 4-1.23 8.18-1.72 14.88-1.72z"/>
<path d="m232.53 144.28 9.45-6.18 9.66 6.38 0.05 0.04c0.17 0.11 0.36 0.17 0.55 0.17h0.02c0.55 0 1-0.45 1-1 0-0.14-0.03-0.27-0.08-0.39l-2.27-11.17 8.25-7.62c0.22-0.21 0.34-0.5 0.31-0.79 0-0.09-0.02-0.18-0.05-0.27-0.13-0.38-0.47-0.64-0.87-0.67l-11.43-0.83-4.22-10.02c-0.15-0.36-0.5-0.6-0.89-0.61-0.43-0.03-0.76 0.21-0.93 0.57l-4.91 10.17-11 0.72c-0.4 0.03-0.74 0.29-0.87 0.67-0.03 0.09-0.05 0.18-0.05 0.27-0.03 0.3 0.09 0.59 0.32 0.8l8.62 7.82-2.19 10.9c-0.02 0.09-0.02 0.17-0.01 0.26 0.01 0.31 0.17 0.59 0.43 0.77 0.33 0.22 0.77 0.23 1.11 0.01zm9.52 1.37c-9.07 0-17.29 2.16-24.55 4.06-1.6 0.42-3.14 0.82-4.62 1.19 3.3-2.54 6.1-6.87 6.1-14.25 0-7.28-6.41-20.87-21.87-20.87-1.76 0-3.36 0.03-4.83 0.1 35.91-10.31 65.51-10.32 100.19 0-1.58-0.07-3.38-0.1-5.49-0.1-9.8 0-23.37 7.25-23.37 20.87 0 7.24 3.23 11.73 6.9 14.4-1.61-0.41-3.29-0.87-5.04-1.35-6.94-1.9-14.8-4.05-23.42-4.05z"/>
<path d="m418.19 289.03h0.01c0 0.01 0.01 0.01 0.02 0.02 0 0.01 0.01 0.01 0.01 0.02l0.06 0.09c2.74 4.37 7.83 4.62 10.45 4.62h0.52 0.35c8 0 10.16-5.89 10.17-9.38 0-2.93-1.77-6.08-5.67-6.08-3.41 0-4.43 2.09-4.5 3.19-0.03 0.55 0.39 1.03 0.94 1.06 0.56 0.03 1.03-0.39 1.06-0.94 0-0.02 0.1-1.31 2.5-1.31 3.57 0 3.67 3.66 3.67 4.08 0 0.75-0.26 7.38-8.17 7.38h-0.36c-2.07 0.01-6.88 0.05-9.23-3.63-0.19-1-1-5.84-0.02-9.76 1.08-4.31 4.99-8.91 12.71-8.91 7.86 0 15.29 7.14 15.29 14.69 0 5.98-3.74 9.94-6.33 12.65-7.67 5.22-21.26 4.72-26.98-1.01-8.75-8.75-12.83-25.36-12.83-52.29 0-27.78 3.97-65.24 15.17-79.38 2.72-3.45 5.44-5.7 17.94-5.28 6.29 2.08 10.67 7.73 10.67 13.82 0 6.42-4.84 15.71-13.58 15.71-8.91 0-11.72-7.74-12.02-8.67 0 0-0.01-0.03-0.02-0.08-0.13-0.69-0.96-5.64 1.51-8.69 1.33-1.65 3.46-2.49 6.33-2.49 1.98 0 4.49 0.86 5.65 2.78 0.98 1.62 0.82 3.78-0.48 6.26-0.25 0.49-0.06 1.09 0.43 1.35 0.48 0.25 1.09 0.06 1.35-0.43 2.06-3.95 1.36-6.65 0.42-8.21-1.68-2.77-5.02-3.75-7.37-3.75-3.5 0-6.16 1.09-7.89 3.24-2.9 3.59-2.16 8.94-1.94 10.18-8.21 26.87-7.58 63.93-7.37 76.13l0.05 3.05c0.25 16.51 0.29 19.05 7.48 29.97z"/>
<path d="m392.38 157.4v239.2c0 38.6-45.06 135.63-151.49 135.63-59.12 0-95.68-28.99-115.94-53.32-24.01-28.83-34.949-62.88-34.949-82.31v-239.2h302.38zm-4.38 237.5v-229.71c0-0.55-0.45-1-1-1h-290.28c-0.55 0-0.999 0.45-0.999 1v229.71c0 19.99 10.019 52.47 32.399 79.97 19.2 23.58 54.47 51.7 113.45 51.7 57 0 92.56-28.45 112.36-52.32 23.41-28.22 34.07-60.91 34.07-79.35z"/>
<path d="m425.6 374.9c-1.86-5.93-9.09-21.87-10.72-25.43-0.02 0.01-0.04 0.01-0.06 0.01-1.55 1.33-2.87 3.17-2.44 4.83 0.3 1.14 1.28 3.21 2.63 6.07 3.69 7.78 9.84 20.78 12.37 36.14 0.72 4.34 1.15 8.88 1.15 13.54 0 0.7-0.01 1.4-0.03 2.1-0.14 4.89-0.77 9.8-1.88 14.66 0 0-0.01 0.02-0.01 0.04-2.35 10.28-6.87 20.54-13.45 30.54-5.95 8.43-12.89 16.74-19.16 22.88 0 0.02-0.01 0.02-0.02 0.03-0.02 0.03-0.05 0.06-0.08 0.08-0.01 0-0.01 0-0.01 0.01-7.52 7.32-15.43 13.61-22.91 18.77-8.86 6.11-17.12 10.62-23.42 13.36-6 2.61-15.29 7.04-24.27 11.32-9.24 4.41-18.8 8.96-25.06 11.68-14.03 6.06-26.84 22.68-26.97 22.85-0.08 0.1-0.2 0.17-0.33 0.19-0.14 0.01-0.27-0.02-0.37-0.1s-9.79-7.41-15.26-3.82c-0.56 0.37-0.9 1.76-1.17 2.88-0.24 0.98-0.47 1.9-0.85 2.48-2.2 3.27-10.72 11.12-11.08 11.45-0.1 0.09-0.22 0.13-0.34 0.13-0.11 0-0.21-0.03-0.3-0.11-0.41-0.3-9.83-7.56-11.48-11.04-0.28-0.56-0.37-1.42-0.47-2.32-0.11-1-0.23-2.14-0.62-2.56-4.6-5.02-17.06 3.16-17.18 3.26-0.12 0.06-0.26 0.1-0.39 0.06-0.14-0.02-0.25-0.12-0.32-0.24-0.09-0.14-8.5-14.5-20.96-20.46-2.91-1.4-6.87-3.38-11.07-5.46-7.43-3.72-15.84-7.92-21.08-10.2-0.45-0.2-1.04-0.44-1.76-0.74-6.76-2.88-24.7-10.48-43.72-23.22h-0.02c-8.7-5.82-16.584-12.04-23.424-18.48-0.02-0.01-0.04-0.02-0.05-0.05-7.23-6.77-13.41-13.93-18.38-21.23-0.021-0.03-0.04-0.07-0.061-0.1 0-0.01-0.01-0.02-0.01-0.02-6.81-10.02-11.52-20.59-13.979-31.43v-0.02c-1.37-6.02-2.061-12.24-2.061-18.51 0-4 0.34-8.2 1-12.47 0-0.06 0.01-0.12 0.03-0.18 0.17-1.11 0.37-2.24 0.6-3.37 2.351-12.11 7.32-25.08 14.79-38.58 0.601-1.09-0.84-2.66-2.52-4.49-0.09-0.1-0.17-0.19-0.261-0.29-2.01 4.13-10.88 23.07-14.729 42.83-1.11 5.65-1.8 11.38-1.8 16.84 0 35.08 13.02 77 109.58 121.92l2.18 1.01c9.76 4.53 12.38 5.75 24.04 13.57 6.42 4.3 20 20.34 23.04 23.98l6.82-4.8c0.42-0.28 0.96-0.23 1.32 0.14l7.66 8.12 2.46-1.68c0.38-0.27 0.9-0.23 1.24 0.09l11.7 10.84 10.34-10.32c0.28-0.28 0.7-0.36 1.06-0.22l3.32 1.27 7.86-7.64c0.36-0.33 0.88-0.37 1.28-0.1l6.4 4.47c3.04-3.67 16.56-19.85 22.96-24.15 9.38-6.28 21.44-12.34 34.22-18.75 43.19-21.67 96.93-48.64 102.02-109.75 0.13-1.62 0.22-3.21 0.27-4.77 0.5-14.9-2.61-27.16-5.81-37.34z"/>
<path d="m80.88 244.07c0.101 10.39 0.341 34.74-7.039 45.52-1.091 1.59-6.971 9.63-15.75 11.26-5.07 0.95-10.28-0.39-15.48-3.96-0.02-0.01-0.04-0.03-0.06-0.04-3.141-2.54-6.83-6.7-6.83-12.17 0-4.69 3.409-15.14 13.55-15.66 4.88-0.25 8.54 0.78 10.91 3.07 2.13 2.04 3.18 5.07 3.13 9-0.021 1.71-1.101 5.71-1.58 7.31-0.73 0.99-2.25 3-7.68 3-3 0-8.07-1.34-8.07-6.38 0-3.85 2.71-4.68 3.38-4.68 0.92 0 1.94 0.39 2.36 0.9 0.189 0.23 0.18 0.4 0.159 0.53-0.109 0.54 0.24 1.06 0.79 1.17 0.53 0.11 1.061-0.24 1.171-0.79 0.159-0.78-0.04-1.53-0.58-2.18-0.801-0.98-2.36-1.63-3.9-1.63-1.75 0-5.38 1.63-5.38 6.68 0 5.76 5.22 8.38 10.07 8.38 6.38 0 8.399-2.62 9.26-3.78 1.27-0.73 7.359-4.66 8.17-13.51 0.06-0.77 1.62-18.86 1.66-25.08 0.1-15.74-2-58.09-7.82-70.38 0.08-1.49 0.23-8.49-3.49-12.51-1.729-1.87-4.01-2.82-6.8-2.82-2.29 0-5.34 1.22-7 3.93-1.13 1.87-1.99 5.05 0.36 9.61 0.25 0.49 0.85 0.68 1.35 0.43 0.49-0.25 0.68-0.86 0.43-1.35-1.529-2.96-1.68-5.6-0.43-7.65s3.561-2.97 5.29-2.97c2.23 0 3.98 0.71 5.33 2.17 3.26 3.53 3.01 10.23 2.95 11.17-0.5 1.19-3.681 8.02-11 8.02-5.36 0-15.5-3.27-15.5-15.66 0-10.22 8.31-13.53 13.33-14.59 7.189-0.45 13.04 1.63 16.04 5.69 11.41 15.4 14.6 56.07 14.68 77.66-0.001 0.66 0.009 1.43 0.019 2.29z"/>
<path d="m428.52 302.46c-5.97 0-11.79-1.78-15.25-5.23-9.15-9.15-13.41-26.22-13.41-53.71 0-10.17 0.75-61.87 15.6-80.62 1.89-2.39 3.84-4.34 8.34-5.33-2.13-0.28-4.3-0.72-6.28-1.28-0.67-0.19-1.32-0.38-1.93-0.59-2.1 0.14-3.7 1.08-4.75 1.96-2.41 2.01-3.85 5.23-3.85 7.18 0 0.28-0.22 0.5-0.5 0.5s-0.5-0.22-0.5-0.5c0-2.15 1.47-5.67 4.21-7.95 1.08-0.9 2.27-1.53 3.53-1.89-0.56-0.23-1.09-0.47-1.58-0.72-0.8-0.4-1.54-0.9-2.2-1.47-0.16-0.14-0.32-0.27-0.47-0.42-1.03 0.01-2.22 0.45-3.33 1.26-1.28 0.94-2.17 2.17-2.17 3 0 0.28-0.22 0.5-0.5 0.5s-0.5-0.22-0.5-0.5c0-1.16 1.01-2.66 2.58-3.81 1-0.72 2.05-1.19 3.05-1.37-0.62-0.71-2.04-3.03-2.14-3.23-1.8-0.75-4.07 0.13-4.82 0.46-1.96 0.87-3.28 2.2-3.28 2.89 0 0.28-0.22 0.5-0.5 0.5s-0.5-0.22-0.5-0.5c0-1.43 2.01-2.97 3.88-3.81 1.68-0.75 3.31-1 4.66-0.73-0.35-0.76-0.67-1.59-0.99-2.5-0.16-0.45-0.31-0.91-0.46-1.38-1.04-0.87-2.79-1.51-4.93-1.75-3.26-0.36-7.27 0.31-8.64 2.32-0.15 0.23-0.47 0.29-0.69 0.13-0.23-0.15-0.29-0.46-0.13-0.69 1.66-2.44 6.12-3.14 9.57-2.75 1.72 0.19 3.2 0.62 4.35 1.24-0.26-0.89-0.52-1.79-0.77-2.67-0.23-0.83-0.47-1.67-0.71-2.5-0.04-0.15-0.09-0.3-0.14-0.45-9.94-7.01-14.55-6.98-20.18-0.14-0.18 0.21-0.5 0.24-0.71 0.07-0.21-0.18-0.24-0.49-0.07-0.71 5.81-7.05 10.79-7.36 20.49-0.76-1.25-3.87-2.67-6.96-4.93-9.22-4.7-4.71-9.42-4.71-12.54-4.71-4.78 0-8.68 3.59-13.19 7.76-0.45 0.42-0.9 0.83-1.37 1.25-0.88 1.9-8.07 16.31-23.43 16.31-13.09 0-24.52-6.75-34.6-12.7-8.11-4.78-15.76-9.3-22.73-9.3-8.67 0-14.96 4.53-14.96 10.77 0 0.35 0.02 0.71 0.06 1.07 1.46-2.76 4.51-6.37 10.4-6.37 5.49 0 9.96 5.16 9.96 11.49 0 8.8-8.7 13.66-14.71 13.66-0.09 0-0.17 0-0.27-0.01h-0.11c-0.03 0-0.05 0-0.08-0.01-4.28-0.08-9-1.37-14.46-2.87-6.81-1.86-14.73-3.98-23.08-3.98-8.81 0-16.71 2.12-23.85 3.99-5.69 1.49-10.6 2.78-15.05 2.87h-0.1c-0.23 0.01-0.37 0.01-0.38 0.01-8.31 0-13.61-7.73-13.61-13.05 0-7.35 4.23-11.57 11.61-11.57 3.05 0 5.71 1.78 7.67 5.15 0.34 0.59 0.63 1.17 0.88 1.72 0.34-2.73-0.23-5.33-1.69-7.44-2.43-3.5-7.18-5.43-13.36-5.43-7.17 0-14.1 4.14-22.12 8.93-9.86 5.89-21.03 12.57-35.25 12.57-15.09 0-19.89-11.9-20.56-13.79-0.28-0.3-0.58-0.62-0.9-0.95-3.95-4.21-9.37-9.98-18.159-9.98h-0.04c-3.62 0.01-10.649 3.14-12.63 6.21-1.2 1.87-2.22 4.78-3.229 8.01 2.55-2.6 6.029-4.24 9.859-4.56 4.3-0.35 8.2 1.09 10.189 3.76 0.17 0.22 0.12 0.53-0.1 0.7-0.22 0.16-0.54 0.12-0.7-0.1-1.789-2.4-5.359-3.68-9.31-3.36-4.38 0.36-8.25 2.55-10.68 5.98-0.01 0.03-0.021 0.06-0.03 0.09l-0.52 1.72c-0.28 0.91-0.591 1.89-0.921 2.89 1.15-0.77 2.53-1.28 4.12-1.53 4.28-0.65 8.74 0.84 10.591 2.66 0.199 0.2 0.199 0.52 0.01 0.71-0.2 0.2-0.521 0.2-0.71 0.01-1.641-1.62-5.83-2.99-9.74-2.39-1.521 0.24-3.45 0.85-4.91 2.38-0.21 0.59-0.42 1.17-0.649 1.73-0.011 0.03-0.021 0.05-0.04 0.08 0 0.01-0.011 0.01-0.011 0.02s-0.01 0.03-0.02 0.04c-0.01 0.04-0.03 0.08-0.04 0.12-0.2 0.48-0.4 0.93-0.58 1.35 1.39-0.34 3-0.25 4.67 0.28 2.39 0.76 4.26 2.23 4.76 3.76 0.09 0.26-0.05 0.55-0.31 0.63-0.05 0.02-0.11 0.03-0.16 0.03-0.21 0-0.41-0.13-0.47-0.34-0.41-1.22-2.061-2.47-4.12-3.12-1.84-0.58-3.63-0.56-5 0.02-0.11 0.21-0.22 0.42-0.33 0.61-0.46 0.79-0.9 1.45-1.36 2-0.14 0.17-0.29 0.33-0.45 0.48 2 0.32 3.73 1.31 4.841 2.31 1.12 1.01 1.77 2.13 1.77 3.08 0 0.28-0.22 0.5-0.5 0.5s-0.5-0.22-0.5-0.5c0-0.65-0.55-1.54-1.439-2.34-1.16-1.04-3.091-2.07-5.23-2.14-0.16 0.12-0.33 0.24-0.51 0.36-0.98 0.66-2.21 1.27-3.681 1.83 3.78 0.99 7.75 4.05 8.49 10.48 0.03 0.28-0.17 0.53-0.439 0.56h-0.062c-0.25 0-0.47-0.19-0.5-0.44-0.779-6.87-5.55-9.56-9.38-9.93-0.49 0.15-0.99 0.3-1.52 0.45-2.181 0.6-4.48 1.07-6.66 1.43 3.84 1.03 6.939 2.98 8.97 5.73 14.44 19.48 15.061 72.83 15.08 78.85 0 0.65 0.01 1.41 0.02 2.27 0.101 10.58 0.341 35.37-7.39 46.66-1.64 2.41-7.72 10.38-17.03 12.11-1.1 0.21-2.21 0.31-3.319 0.32 1.439 0.84 1.819 2.87 2.18 4.85 0.06 0.32 0.12 0.66 0.19 0.99 8.04-0.13 12.029-2.04 15.04-7.1 0.14-0.23 0.449-0.31 0.689-0.17 0.23 0.14 0.311 0.45 0.17 0.69-3.149 5.29-7.46 7.4-15.68 7.58 0.02 0.07 0.03 0.13 0.05 0.2 0.46 1.79 0.7 3.9 0.84 6.15 8.01-0.06 11.021-1.2 13.681-5.01 0.159-0.22 0.47-0.28 0.699-0.12 0.221 0.16 0.28 0.47 0.12 0.7-2.88 4.13-6.069 5.36-14.46 5.43 0.061 1.37 0.09 2.79 0.09 4.21 2.16 2.06 4.73 2.4 6.58 2.3 4.17-0.23 8.101-2.76 9.681-5.02 0.159-0.22 0.47-0.28 0.699-0.12 0.221 0.16 0.28 0.46 0.12 0.7-1.76 2.5-5.91 5.18-10.45 5.44-0.22 0-0.43 0.02-0.64 0.02-2.28 0-4.32-0.68-5.99-2 0.011 0.5 0.011 0.98 0.011 1.46 0 0.92 0 1.84 0.01 2.76 0 0.16 0 0.32 0.01 0.48 1.96 2.4 3.96 3.72 6.08 4.03 3.07 0.43 6.59-1.09 12.14-5.28 0.221-0.16 0.53-0.12 0.7 0.1 0.16 0.22 0.12 0.53-0.1 0.7-3.851 2.91-7.91 5.55-11.76 5.55-0.381 0-0.75-0.02-1.12-0.08-2.091-0.3-4.04-1.44-5.931-3.47 0.03 1.62 0.101 3.39 0.271 5.01v0.1c0.02 0.19 0.04 0.37 0.06 0.54 5.36 6.52 11.971 6.59 20.7 0.3 0.22-0.17 0.53-0.12 0.7 0.11 0.16 0.22 0.109 0.53-0.12 0.7-4.53 3.27-8.53 4.9-12.1 4.9-3.29 0-6.221-1.39-8.881-4.16 0.19 1.04 0.44 1.92 0.74 2.66 1 2.45 6.01 6.47 8 7.91 2.97 1.28 8.8 2.17 15.03-5.95 0.33-0.44 0.96-0.53 1.4-0.18 0.439 0.33 0.52 0.96 0.18 1.39-4.61 6.02-9.2 7.54-12.68 7.54-0.78 0-1.511-0.08-2.171-0.2 1.591 1.78 2.73 3.35 1.91 4.82-7.779 14.08-12.83 27.54-15.02 40.06l-0.312 1.82c-0.649 4.2-0.97 8.32-0.97 12.24 0 5.68 0.58 11.32 1.71 16.78l0.361 1.68c2.34 10.22 6.7 20.21 12.97 29.71l0.961 1.45c4.72 6.92 10.54 13.68 17.3 20.14l1.05 1c6.41 6 13.741 11.84 21.811 17.32l1.46 0.94 0.02 0.06c18.89 12.64 36.72 20.2 43.44 23.06 0.73 0.3 1.33 0.56 1.78 0.74 5.26 2.3 13.69 6.5 21.13 10.22 4.19 2.08 8.15 4.06 11.06 5.46 11.48 5.5 19.56 17.9 21.11 20.42 2.37-1.5 13.34-7.93 18.04-2.82 0.61 0.67 0.74 1.92 0.87 3.14 0.09 0.76 0.18 1.58 0.38 1.98 1.39 2.92 9.17 9.1 10.88 10.42 1.58-1.46 8.68-8.14 10.58-10.98 0.29-0.42 0.51-1.3 0.72-2.16 0.35-1.42 0.7-2.88 1.59-3.47 5.45-3.58 14.05 2.15 16.02 3.57 2.04-2.56 14.01-17.12 27.06-22.78 6.25-2.7 15.8-7.26 25.03-11.66 8.99-4.28 18.29-8.72 24.3-11.34 6.22-2.7 14.34-7.14 23.06-13.14l1.51-1.04c7.03-4.95 14.38-10.88 21.41-17.71l1.06-1.03c7.03-6.94 13.07-14.2 17.96-21.6l0.96-1.48c6.02-9.38 10.19-19 12.43-28.62l0.36-1.67c1.08-5.06 1.62-10.19 1.62-15.25 0-4.57-0.42-9.02-1.12-13.29l-0.32-1.84c-2.68-14.48-8.46-26.71-11.98-34.13-1.38-2.91-2.37-5.01-2.7-6.24-0.45-1.73 0.46-3.51 1.82-4.95-0.13 0.01-0.27 0.01-0.41 0.01-3.81 0-9.63-1.59-14.83-9.56-0.3-0.47-0.17-1.09 0.29-1.39 0.47-0.3 1.08-0.17 1.39 0.29 6.05 9.29 12.8 9.01 15.51 8.42 0.02-0.01 0.03-0.01 0.05-0.02 0.41-0.13 3.53-1.2 5.72-3.83 2.29-2.74 2.78-4.82 2.93-6.5-1.57 1.96-3.85 3.16-6.71 3.51-0.56 0.06-1.13 0.09-1.7 0.09-5.49 0-11.39-2.89-13.46-5.9-0.16-0.22-0.1-0.53 0.13-0.69 0.22-0.16 0.53-0.1 0.69 0.13 2.08 3.02 8.75 6.03 14.22 5.37 2.28-0.27 5.22-1.29 6.95-4.52 0.01-0.34 0.02-0.69 0.03-1.05 0.03-1.21 0.03-2.5 0.02-3.85-1.42 1.27-3.21 2.02-5.26 2.21-0.32 0.03-0.66 0.05-1 0.05-4.04 0-8.68-2.07-12.09-5.45-0.2-0.19-0.2-0.51-0.01-0.7 0.2-0.2 0.51-0.2 0.71-0.01 3.5 3.47 8.32 5.48 12.3 5.12 2.2-0.2 4-1.1 5.34-2.66v-0.54c-0.01-1.56-0.03-3.16-0.01-4.75-1.37 1.02-3.2 1.56-5.34 1.56h-0.45c-4.36-0.16-8.93-2.41-10.62-5.24-0.14-0.24-0.06-0.55 0.17-0.69 0.24-0.14 0.55-0.06 0.69 0.17 1.51 2.53 5.81 4.62 9.79 4.76 2.46 0.09 4.47-0.58 5.77-1.89-0.01-0.15 0-0.29 0-0.44 0.03-1.46 0.08-3.06 0.21-4.68-0.76 0.03-1.48 0.04-2.17 0.04-7.16 0-10.18-1.39-11.8-5.08-0.11-0.25 0.01-0.55 0.26-0.66s0.55 0.01 0.66 0.26c1.42 3.23 3.79 4.75 13.14 4.43 0.23-2.36 0.62-4.7 1.34-6.62-1.31 0.4-2.55 0.56-3.71 0.56-1.97 0-3.67-0.46-4.97-0.99-3.24-1.32-6.03-3.9-7.1-6.55-0.11-0.26 0.02-0.55 0.27-0.65 0.26-0.11 0.55 0.02 0.65 0.27 0.8 1.98 3.14 4.61 6.56 6 2.05 0.83 5.18 1.5 8.78 0.13 1.12-2.61 2.29-4.13 3.81-5.02 0.42-0.25 0.9-0.49 1.4-0.75-0.95 0.1-1.9 0.15-2.85 0.15zm-34.14 94.14c0 19.27-11.18 53.45-35.71 82.94-20.75 24.94-57.06 54.68-116.81 54.68-59.9 0-97.91-29.38-118.45-54.04-3.55-4.26-6.82-8.64-9.81-13.06-5.16-7.64-9.49-15.4-13.04-23.02-8.529-18.26-12.56-35.58-12.56-47.5v-240.2c0-0.56 0.45-1 1-1h152.86 151.52c0.55 0 1 0.44 1 1z"/></g><g fill="#fff">
<path d="m231.06 387.19v0.01c-0.73 1.58-6.85 13.37-24.99 13.37-17.3 0-24.7-14.79-24.77-14.94-0.16-0.33-0.49-0.54-0.85-0.56-0.38-0.03-0.72 0.17-0.91 0.48l-2.91 4.81c-4.12-8.81-3.34-24.36-2.82-30.54 2.96 4.08 9.58 12.76 15.33 17.34l-4.43 2.8c-0.45 0.28-0.6 0.86-0.35 1.32 0.29 0.53 7.11 12.78 21.54 12.78 15.61 0 22.08-10.72 24.7-18.22l0.46 11.35z"/>
<path d="m308.33 359.83c0.52 6.17 1.3 21.72-2.82 30.54l-2.92-4.82c-0.19-0.31-0.54-0.51-0.9-0.48-0.36 0.02-0.69 0.23-0.85 0.56-0.07 0.15-7.47 14.94-24.77 14.94-17.39 0-23.66-10.65-24.9-13.17-0.05-0.27-0.08-0.45-0.1-0.55l0.5-11.04c2.62 7.47 9.1 18.26 24.67 18.26 14.43 0 21.25-12.26 21.54-12.78 0.25-0.47 0.1-1.05-0.35-1.33l-4.43-2.8c5.75-4.58 12.37-13.26 15.33-17.33z"/>
<path d="m151.71 380.13c3.94 5.84 13.42 19.07 21.7 24.62l-6.24 2.73c-0.28 0.13-0.49 0.37-0.57 0.67-0.07 0.3-0.01 0.62 0.18 0.86 9.37 12.14 19.72 17.43 31.65 16.13 11.66-1.25 32.07-10.59 34.64-37.65v-0.09-0.04l-0.77-18.73c0.01-0.02 0.01-0.05 0.01-0.07 0-0.06-0.01-0.12-0.02-0.18v-0.02l-4.18-102.46h12.98 13.43l-4.61 102.3c-0.06 0.13-0.08 0.28-0.07 0.44 0 0 0.01 0.1 0.04 0.3l-0.81 17.92c0 0.06 0 0.12 0.01 0.18 0 0 0.01 0.04 0.02 0.12v0.01c-0.04 0.19-0.04 0.38 0.03 0.57 0 0 0.03 0.1 0.12 0.28 1.24 6.45 8.66 36.88 37.2 36.88 18.7 0 28.07-14.35 28.46-14.96 0.25-0.38 0.2-0.88-0.11-1.22l-5.11-5.54c10.35-5.62 17.77-16.22 20.87-21.24 0.47 6.7 0.96 23.51-3.65 42.72l-6-9.3c-0.22-0.34-0.6-0.52-1-0.46-0.39 0.08-0.71 0.36-0.81 0.74-2.42 9.48-22.62 19.14-32.53 19.16h-0.05c-37.02 0-44.19-41.4-44.25-41.82-0.08-0.49-0.49-0.84-1.01-0.84-0.5 0.01-0.91 0.38-0.97 0.88-0.05 0.4-5.42 40.05-43.01 41.75-9.24 0.4-26.12-4.68-34.84-20.37-0.17-0.31-0.51-0.51-0.87-0.51h-0.02c-0.36 0.01-0.7 0.21-0.87 0.54l-4.96 9.63c-3.37-13.15-3.93-35.5-4.01-43.93z"/>
<path d="m242.05 253.39c0.02-0.1 0.08-0.37 0.25-0.62 0.2-0.29 0.54-0.57 1.11-0.57 0.87 0 1.12 0.89 1.17 1.17l0.04 2.08v0.03c0 0.02 0 0.03 0.01 0.05l0.16 7.98c-0.79 0.11-1.85 0.19-2.74 0.25v-10.37z"/>
<path d="m237.03 253.39c0.09-0.33 0.44-1.23 1.5-1.23 0.87 0 1.36 0.94 1.52 1.3v10.28c-1.07-0.07-2.23-0.18-3.09-0.32l0.06-8.22v-0.06l0.01-1.75z"/>
<path d="m263.15 241.94c0 9.85-6.81 18.55-16.37 21.14l-0.14-6.9c5.91-2.24 9.84-7.88 9.84-14.26 0-8.41-6.83-15.25-15.24-15.25s-15.26 6.84-15.26 15.25c0 6.06 3.52 11.45 9.03 13.9l-0.05 7.12c-9.28-2.74-15.64-11.21-15.64-21 0-12.09 9.83-21.92 21.92-21.92 12.08 0 21.91 9.83 21.91 21.92z"/>
</g><path fill="#f00" d="m235.03 253.61c-4.33-2.28-7.05-6.72-7.05-11.69 0-7.31 5.95-13.25 13.26-13.25 7.3 0 13.24 5.94 13.24 13.25 0 5.3-3.11 10.02-7.88 12.12l-0.02-0.79c0-0.04 0-0.09-0.01-0.13-0.15-1.01-1-2.92-3.15-2.92h-0.02c-1.13 0-1.92 0.46-2.44 1.06-0.58-0.62-1.38-1.1-2.43-1.1-2.29 0-3.28 1.91-3.48 2.92-0.01 0.06-0.02 0.12-0.02 0.19v0.34z"/>
<path fill="#f00" d="m386 166.19v228.71c0 36.91-42.96 129.67-144.43 129.67-58.19 0-92.97-27.71-111.9-50.97-22.07-27.11-31.949-59.06-31.949-78.7v-228.71h288.28zm-57.71 261.21c6.76-26.14 4.01-48.57 3.98-48.8-0.05-0.44-0.38-0.78-0.81-0.86s-0.86 0.14-1.06 0.52c-0.09 0.17-9.12 16.97-22.77 23.74-0.29 0.14-0.49 0.4-0.54 0.72-0.06 0.31 0.03 0.63 0.25 0.86l5.45 5.9c-2.01 2.72-10.89 13.42-26.34 13.42-22.11 0-30.84-19.54-33.93-30 3.71 4.28 10.89 9.66 23.55 9.66 15.11 0 23.17-10.52 25.69-14.54l2.95 4.9c0.18 0.3 0.51 0.48 0.86 0.48s0.68-0.2 0.86-0.5c6.6-11.08 3.76-34.94 3.63-35.96-0.05-0.42-0.35-0.74-0.75-0.84-0.4-0.11-0.83 0.06-1.06 0.39-0.1 0.15-10.16 14.67-17.59 19.91-0.27 0.19-0.43 0.51-0.42 0.84 0.01 0.34 0.18 0.65 0.46 0.82l4.83 3.06c-1.74 2.64-8.09 10.94-19.29 10.94-20.2 0-23.83-19.17-24.36-23.21l4.69-103.92c0.01-0.27-0.09-0.53-0.28-0.73s-0.45-0.31-0.72-0.31h-5.09c8.72-3.72 14.67-12.34 14.67-21.96 0-13.19-10.73-23.92-23.91-23.92-13.19 0-23.92 10.73-23.92 23.92 0 9.74 5.78 18.28 14.4 21.96h-4.65c-0.27 0-0.53 0.11-0.72 0.31-0.19 0.19-0.29 0.46-0.28 0.73l4.23 103.61v0.02c-0.14 1.37-2.9 23.5-24.4 23.5-11.17 0-17.55-8.31-19.29-10.95l4.82-3.05c0.29-0.17 0.46-0.48 0.47-0.82 0.01-0.33-0.15-0.64-0.42-0.84-7.43-5.24-17.49-19.76-17.59-19.91-0.23-0.34-0.65-0.5-1.07-0.39-0.39 0.1-0.7 0.42-0.74 0.84-0.14 1.02-2.98 24.88 3.62 35.96 0.19 0.3 0.52 0.5 0.86 0.5 0.35 0 0.68-0.18 0.86-0.48l2.95-4.9c2.53 4.03 10.57 14.54 25.69 14.54 13.59 0 20.92-6.32 24.37-10.7-4.15 22.28-21.85 30.18-32.23 31.3-10.84 1.16-20.36-3.53-29.05-14.36l6.81-2.98c0.36-0.16 0.58-0.5 0.6-0.88 0.03-0.38-0.18-0.73-0.52-0.92-10.4-5.69-24.36-27.56-24.52-27.78-0.22-0.37-0.68-0.54-1.11-0.42s-0.73 0.51-0.73 0.95c0 1.39-0.18 34.46 4.82 50.31 0.12 0.39 0.46 0.66 0.86 0.7 0.4 0.03 0.78-0.18 0.98-0.54l5.28-10.26c8.46 13.74 23.32 19.83 34.44 19.83 0.44 0 0.88-0.01 1.3-0.03 31.4-1.42 41.26-28.14 43.98-38.99 3.1 11.11 13.98 39.01 45.18 39.01h0.04c9.04-0.01 29.03-8.46 33.76-18.66l6.16 9.55c0.2 0.33 0.6 0.51 1 0.45 0.39-0.07 0.71-0.36 0.81-0.74z"/><g stroke="#000" fill="none">
<path d="m274.58 549.83a9.4915 9.4915 0 1 1 -18.99 0 9.4915 9.4915 0 1 1 18.99 0z" transform="matrix(.82217 0 0 .82217 23.907 104)" stroke-width="1.2163"/><g stroke-linejoin="round" stroke-linecap="round"><path d="m345 510.4c8.83-5.81 17.45-11.97 25.33-19 2.63-2.35 5.19-4.8 7.29-7.63 1.6-2.14 2.93-4.52 3.56-7.12 0.47-1.93 0.53-4.02-0.2-5.87-0.38-0.97-0.99-1.87-1.82-2.49-0.83-0.63-1.91-0.96-2.94-0.79-0.67 0.11-1.3 0.42-1.82 0.86s-0.93 1-1.23 1.61c-0.52 1.07-0.7 2.33-0.33 3.46 0.18 0.56 0.5 1.08 0.93 1.49s0.98 0.69 1.56 0.8c0.86 0.15 1.77-0.11 2.42-0.68-0.18 0.48-0.52 0.89-0.95 1.18-0.43 0.28-0.95 0.42-1.46 0.4-0.45-0.02-0.89-0.17-1.29-0.38s-0.75-0.49-1.09-0.8c-1.34-1.22-2.3-2.83-2.74-4.59-0.44-1.75-0.36-3.64 0.24-5.34 0.59-1.69 1.67-3.2 3.09-4.28 1.69-1.29 3.82-1.95 5.94-1.87 2.61 0.1 5.15 1.32 6.95 3.22 2.32 2.46 3.39 5.95 3.22 9.32-0.15 2.89-1.16 5.69-2.55 8.22-1.82 3.33-4.3 6.26-7.03 8.9-3.94 3.81-8.4 7.04-12.97 10.09-3.52 2.35-7.12 4.6-10.76 6.78-3.77 2.25-7.58 4.43-11.44 6.52-5.39 2.93-10.86 5.7-16.41 8.31 5.58-3.31 11.08-6.75 16.5-10.32" stroke-miterlimit="6"/><path d="m388.01 485.2c10.37-10.02 18.64-22.19 24.16-35.51 4.41-10.63 7.07-22.04 7.15-33.55 0.02-3.49-0.2-7.01-1.1-10.39-0.77-2.9-2.09-5.75-4.35-7.73-1.12-0.99-2.47-1.75-3.93-2.1-1.46-0.36-3.02-0.3-4.43 0.23-1.36 0.53-2.55 1.51-3.32 2.76s-1.12 2.75-0.98 4.21c0.09 0.85 0.33 1.69 0.76 2.43 0.43 0.73 1.04 1.37 1.78 1.79 0.75 0.42 1.62 0.61 2.47 0.5s1.66-0.52 2.21-1.17c0.6-0.71 0.87-1.68 0.72-2.6 0.27 0.39 0.42 0.86 0.45 1.33 0.02 0.54-0.12 1.09-0.39 1.56s-0.66 0.86-1.11 1.16c-0.9 0.6-2.02 0.81-3.1 0.8-1.59-0.02-3.16-0.48-4.54-1.28-1.37-0.8-2.54-1.93-3.43-3.25-1.77-2.63-2.37-5.95-2.04-9.11 0.33-3.08 1.55-6.09 3.61-8.42 2.05-2.32 4.96-3.91 8.05-4.21 2.11-0.2 4.28 0.2 6.22 1.07 1.95 0.86 3.67 2.19 5.09 3.78 3.68 4.12 5.12 9.76 5.86 15.23 1.65 12.15 0.42 24.67-3.49 36.29-3.27 9.74-8.38 18.81-14.52 27.04-5.22 7-11.2 13.43-17.8 19.14" stroke-miterlimit="5"/><path d="m137.28 510.04c-9.01-5.69-17.94-11.59-25.93-18.64-2.64-2.33-5.19-4.8-7.29-7.63-1.59-2.15-2.92-4.52-3.56-7.12-0.47-1.93-0.525-4.02 0.21-5.87 0.38-0.97 0.98-1.87 1.82-2.49 0.83-0.63 1.9-0.96 2.93-0.79 0.67 0.11 1.31 0.42 1.83 0.86s0.93 1 1.23 1.61c0.52 1.07 0.69 2.33 0.33 3.46-0.19 0.56-0.5 1.08-0.94 1.49-0.43 0.41-0.97 0.69-1.56 0.8-0.85 0.15-1.77-0.11-2.41-0.68 0.18 0.48 0.52 0.89 0.95 1.18 0.43 0.28 0.94 0.42 1.45 0.4 0.46-0.02 0.9-0.17 1.29-0.38 0.4-0.21 0.76-0.49 1.09-0.8 1.34-1.22 2.31-2.83 2.75-4.59 0.44-1.75 0.35-3.64-0.25-5.34-0.58-1.69-1.67-3.2-3.09-4.28-1.68-1.29-3.82-1.95-5.93-1.87-2.618 0.1-5.15 1.32-6.95 3.22-2.323 2.46-3.396 5.95-3.221 9.32 0.151 2.89 1.154 5.69 2.543 8.22 1.822 3.33 4.303 6.27 7.038 8.9 3.94 3.81 8.41 7.03 12.96 10.09 3.52 2.37 7.09 4.65 10.76 6.78 3.91 2.26 7.92 4.33 11.95 6.35 5.4 2.71 10.84 5.32 16.33 7.85-5.48-3.29-10.92-6.64-16.33-10.05" stroke-miterlimit="6"/><path d="m94.661 484.43c-10.523-9.65-18.933-21.59-24.472-34.74-4.465-10.61-7.077-22.04-7.143-33.55-0.02-3.49 0.198-7.01 1.094-10.39 0.769-2.9 2.098-5.75 4.351-7.73 1.127-0.99 2.474-1.75 3.932-2.1 1.457-0.36 3.026-0.3 4.426 0.23 1.369 0.53 2.556 1.51 3.325 2.76 0.77 1.25 1.117 2.75 0.976 4.21-0.082 0.85-0.328 1.69-0.755 2.43-0.428 0.73-1.041 1.37-1.785 1.79s-1.619 0.61-2.465 0.5-1.657-0.52-2.209-1.17c-0.598-0.71-0.869-1.68-0.721-2.6-0.267 0.39-0.424 0.86-0.448 1.33-0.027 0.54 0.119 1.09 0.389 1.56 0.269 0.47 0.66 0.86 1.111 1.16 0.902 0.6 2.016 0.81 3.099 0.8 1.588-0.02 3.163-0.48 4.535-1.28s2.542-1.93 3.429-3.25c1.774-2.63 2.378-5.95 2.04-9.11-0.33-3.08-1.546-6.09-3.601-8.42-2.055-2.32-4.963-3.91-8.05-4.21-2.12-0.2-4.282 0.2-6.227 1.07-1.944 0.86-3.672 2.19-5.09 3.78-3.675 4.12-5.118 9.76-5.857 15.23-1.64 12.15-0.378 24.66 3.485 36.29 3.238 9.76 8.276 18.88 14.526 27.04 5.24 6.85 11.338 13.03 18.105 18.37" stroke-miterlimit="5"/></g></g></g>
</svg>
